<?xml version="1.0" standalone="no"?>
<!DOCTYPE svg PUBLIC "-//W3C//DTD SVG 20010904//EN"
 "http://www.w3.org/TR/2001/REC-SVG-20010904/DTD/svg10.dtd">
<svg version="1.0" xmlns="http://www.w3.org/2000/svg"
 width="288.000000pt" height="288.000000pt" viewBox="0 0 288.000000 288.000000"
 preserveAspectRatio="xMidYMid meet">

<g transform="translate(0.000000,288.000000) scale(0.100000,-0.100000)"
fill="#ffffff" stroke="none">
<path d="M1375 2794 c-10 -11 -14 -25 -11 -40 5 -18 2 -24 -9 -24 -27 0 -65
-47 -65 -80 0 -36 38 -80 69 -80 21 0 21 -5 23 -437 3 -430 3 -438 23 -438 16
0 21 8 23 38 4 50 32 52 32 2 0 -32 2 -35 30 -35 28 0 30 2 30 40 0 33 -3 40
-20 40 -11 0 -20 6 -20 14 0 7 9 16 20 19 15 4 20 14 20 41 0 33 -2 36 -30 36
-27 0 -30 -3 -30 -30 0 -20 -5 -30 -15 -30 -13 0 -15 48 -15 370 0 366 0 370
20 370 32 0 70 44 70 80 0 33 -38 80 -65 80 -11 0 -14 6 -9 24 6 25 -17 56
-41 56 -7 0 -21 -7 -30 -16z m53 -27 c4 -20 -25 -34 -40 -19 -15 15 -1 44 19
40 10 -2 19 -11 21 -21z"/>
<path d="M830 2225 l0 -104 -35 -17 c-20 -9 -44 -28 -55 -42 -19 -24 -20 -42
-20 -524 0 -406 2 -499 13 -495 7 3 161 110 341 238 304 215 330 231 350 219
11 -7 160 -112 330 -233 171 -120 316 -221 323 -224 11 -4 13 86 13 495 0 560
5 525 -74 567 l-36 20 0 102 0 103 -260 0 -260 0 0 -40 0 -40 220 0 220 0 0
-51 0 -50 -77 6 c-97 8 -217 -12 -302 -50 -58 -26 -61 -30 -61 -62 0 -19 3
-33 8 -31 4 2 36 17 72 35 36 18 86 37 110 42 97 22 245 9 321 -30 l36 -18 6
-233 c9 -312 9 -628 0 -628 -5 0 -138 93 -298 206 -159 113 -295 208 -302 211
-7 3 -145 -89 -308 -204 -162 -114 -299 -209 -305 -211 -12 -4 -13 161 -3 572
l6 287 36 18 c121 61 320 53 448 -19 29 -17 55 -30 58 -30 3 0 5 15 5 34 0 31
-4 35 -61 61 -85 38 -205 58 -301 50 l-78 -6 0 50 0 51 220 0 220 0 0 40 0 40
-260 0 -260 0 0 -105z"/>
<path d="M613 1583 l-33 -41 0 -381 c0 -378 0 -382 20 -371 11 6 66 44 122 85
l103 74 3 -87 3 -87 251 -150 c138 -82 267 -160 287 -172 l36 -21 285 171 285
172 5 87 5 87 120 -85 120 -86 3 381 2 382 -32 41 -33 40 -6 -342 c-4 -188 -9
-344 -12 -347 -3 -3 -169 113 -369 257 -200 145 -367 263 -373 263 -5 0 -176
-120 -378 -266 -202 -147 -370 -267 -372 -267 -3 0 -6 158 -7 352 l-3 352 -32
-41z m764 -310 c-3 -2 -27 -3 -53 -1 l-48 3 49 37 50 37 3 -36 c2 -19 1 -37
-1 -40z m149 5 c3 -5 -18 -8 -45 -8 l-51 0 0 41 0 40 46 -33 c25 -18 48 -36
50 -40z m-330 -123 l-10 -65 -54 0 c-45 0 -53 3 -48 16 3 9 6 20 6 24 0 9 99
90 110 90 3 0 1 -29 -4 -65z m184 0 l0 -65 -71 0 -72 0 7 50 c11 79 11 80 77
80 l59 0 0 -65z m174 50 c3 -8 8 -37 12 -65 l7 -50 -72 0 -71 0 0 65 0 65 59
0 c43 0 60 -4 65 -15z m113 -25 c29 -23 53 -45 53 -50 0 -4 3 -15 6 -24 5 -13
-3 -16 -48 -16 l-54 0 -10 65 c-5 36 -8 65 -5 65 2 0 28 -18 58 -40z m-637
-129 c0 -60 34 -155 75 -211 145 -198 455 -199 600 -2 39 53 75 155 75 213 0
21 3 39 7 39 3 0 30 -18 60 -40 l53 -41 0 -92 0 -92 -232 -140 c-127 -77 -239
-144 -249 -149 -13 -6 -76 27 -263 140 l-246 149 0 92 0 92 53 40 c28 23 55
41 60 41 4 0 7 -18 7 -39z m153 -18 c3 -5 8 -36 12 -70 l7 -63 -36 0 c-26 0
-40 6 -50 23 -17 25 -36 103 -28 112 8 8 90 6 95 -2z m197 -63 l0 -70 -59 0
-59 0 -11 50 c-20 91 -20 90 59 90 l70 0 0 -70z m190 50 c0 -10 -5 -42 -11
-70 l-11 -50 -59 0 -59 0 0 70 0 70 70 0 c63 0 70 -2 70 -20z m152 -15 c-2
-16 -11 -46 -20 -65 -15 -30 -23 -35 -56 -38 l-38 -3 7 63 c4 35 9 67 12 71 3
4 26 7 51 5 46 -3 47 -4 44 -33z m-479 -190 c21 -44 7 -45 -41 0 l-37 34 31 1
c25 0 33 -6 47 -35z m137 -15 c0 -27 -4 -50 -9 -50 -15 0 -56 37 -74 69 l-18
31 50 0 51 0 0 -50z m133 19 c-18 -32 -59 -69 -74 -69 -5 0 -9 23 -9 50 l0 50
51 0 50 0 -18 -31z m93 -4 c-50 -44 -60 -44 -39 0 14 29 22 35 47 35 l31 -1
-39 -34z"/>
<path d="M1067 470 c-49 -46 -51 -50 -35 -66 16 -16 20 -14 76 37 43 39 57 57
49 67 -17 21 -37 13 -90 -38z"/>
<path d="M1653 508 c-8 -10 6 -28 49 -67 56 -51 60 -53 76 -37 16 16 14 20
-35 66 -53 51 -73 59 -90 38z"/>
<path d="M1248 312 c-14 -70 -25 -128 -24 -129 0 -1 13 -4 27 -8 25 -6 25 -6
48 115 12 67 21 123 19 125 -2 1 -12 7 -23 13 -19 10 -22 4 -47 -116z"/>
<path d="M1515 428 c-11 -6 -21 -12 -23 -14 -2 -1 7 -57 19 -124 23 -121 23
-121 48 -115 14 4 27 7 28 8 0 1 -11 59 -26 129 -25 120 -27 126 -46 116z"/>
</g>
</svg>
